<?xml version="1.0" encoding="UTF-8" standalone="no"?>
<svg
   xmlns:dc="http://purl.org/dc/elements/1.1/"
   xmlns:cc="http://creativecommons.org/ns#"
   xmlns:rdf="http://www.w3.org/1999/02/22-rdf-syntax-ns#"
   xmlns:svg="http://www.w3.org/2000/svg"
   xmlns="http://www.w3.org/2000/svg"
   xmlns:sodipodi="http://sodipodi.sourceforge.net/DTD/sodipodi-0.dtd"
   xmlns:inkscape="http://www.inkscape.org/namespaces/inkscape"
   inkscape:version="1.0 (4035a4fb49, 2020-05-01)"
   height="508"
   width="508"
   sodipodi:docname="smile-fit.svg"
   id="svg4"
   version="1.1"
   viewBox="0 0 507.99999 507.99999">
  <metadata
     id="metadata10">
    <rdf:RDF>
      <cc:Work
         rdf:about="">
        <dc:format>image/svg+xml</dc:format>
        <dc:type
           rdf:resource="http://purl.org/dc/dcmitype/StillImage" />
        <dc:title></dc:title>
      </cc:Work>
    </rdf:RDF>
  </metadata>
  <defs
     id="defs8" />
  <sodipodi:namedview
     inkscape:current-layer="svg4"
     inkscape:window-maximized="0"
     inkscape:window-y="0"
     inkscape:window-x="0"
     inkscape:cy="246"
     inkscape:cx="254"
     inkscape:zoom="1.1289062"
     fit-margin-bottom="6"
     fit-margin-top="6"
     fit-margin-right="6"
     fit-margin-left="6"
     showgrid="false"
     id="namedview6"
     inkscape:window-height="952"
     inkscape:window-width="1287"
     inkscape:pageshadow="2"
     inkscape:pageopacity="0"
     guidetolerance="10"
     gridtolerance="10"
     objecttolerance="10"
     borderopacity="1"
     bordercolor="#666666"
     pagecolor="#ffffff" />
  <path
     id="path2"
     d="M 254,6 C 117,6 6,117 6,254 6,391 117,502 254,502 391,502 502,391 502,254 502,117 391,6 254,6 Z m 0,448 C 143.7,454 54,364.3 54,254 54,143.7 143.7,54 254,54 c 110.3,0 200,89.7 200,200 0,110.3 -89.7,200 -200,200 z M 174,238 c 17.7,0 32,-14.3 32,-32 0,-17.7 -14.3,-32 -32,-32 -17.7,0 -32,14.3 -32,32 0,17.7 14.3,32 32,32 z m 160,0 c 17.7,0 32,-14.3 32,-32 0,-17.7 -14.3,-32 -32,-32 -17.7,0 -32,14.3 -32,32 0,17.7 14.3,32 32,32 z m 4,72.6 c -20.8,25 -51.5,39.4 -84,39.4 -32.5,0 -63.2,-14.3 -84,-39.4 -8.5,-10.2 -23.7,-11.5 -33.8,-3.1 -10.2,8.5 -11.5,23.6 -3.1,33.8 30,36 74.1,56.6 120.9,56.6 46.8,0 90.9,-20.6 120.9,-56.6 8.5,-10.2 7.1,-25.3 -3.1,-33.8 -10.1,-8.4 -25.3,-7.1 -33.8,3.1 z" />
</svg>
